<svg width="38" height="38" viewBox="0 0 38 38" fill="none" xmlns="http://www.w3.org/2000/svg">
<rect width="38" height="38" rx="19" fill="url(#paint0_linear_129_971)"/>
<path d="M28.1805 15.8694C28.1046 14.8675 27.8198 13.4416 26.7378 13.083C25.9278 12.8152 25.3013 13.2286 24.9027 13.8487C23.7278 15.0721 23.6751 17.559 24.89 18.698C25.4173 19.1915 26.3644 19.5143 26.9635 18.8857C27.8009 18.0061 28.2776 17.116 28.1826 15.8694H28.1805Z" fill="black"/>
<path d="M16.954 14.2792C16.54 13.3356 15.546 13.0211 14.6465 12.5563C13.5747 12.0014 12.463 11.2802 11.2672 11.0137C10.7964 10.9075 10.4644 11.4424 10.7985 11.783C11.4206 12.4181 12.257 12.8508 13.0283 13.3036C13.4276 13.538 13.8248 13.7724 14.2241 14.0048C14.2682 14.0308 14.3376 14.0649 14.4174 14.1029C13.5663 14.3694 12.7572 14.734 11.9985 15.2168C11.1327 15.7698 9.8486 16.5891 10.0146 17.7131C10.0398 17.8873 10.2416 17.9815 10.4034 17.9955C11.3701 18.0757 12.2759 17.0579 13.0451 16.6052C14.0812 15.9941 15.2013 15.5354 16.3803 15.2469C16.7733 15.1507 17.1263 14.6679 16.9561 14.2792H16.954Z" fill="black"/>
<path d="M26.2658 24.9242C26.1869 24.8224 26.1028 24.7156 26.0111 24.6088C25.9475 24.4498 25.8329 24.3157 25.6775 24.2536C25.2649 23.8538 24.7657 23.5259 24.1977 23.5036C23.915 23.4912 23.6297 23.8115 23.7418 24.0872C23.8539 24.3629 24.022 24.6113 24.213 24.8522C23.6858 25.2297 23.1866 25.6743 22.6262 25.9748C21.5107 26.5758 20.1964 26.9459 18.9229 27.0129C17.6291 27.08 16.3429 26.7695 15.3725 25.8953C14.7128 25.2992 14.2976 24.4225 13.6991 23.7644C13.7908 23.7122 13.885 23.665 13.9818 23.6203C14.4174 23.4216 15.6679 22.9224 15.0745 22.2692C14.5014 21.6409 13.2916 22.2643 12.744 22.6045C12.0079 23.0615 11.1827 23.7321 11.0095 24.6088C10.9357 24.9838 11.305 25.2794 11.6641 25.1005C11.9417 24.9615 12.1964 24.7926 12.446 24.6162C12.8 25.6693 13.6711 26.7248 14.4046 27.3805C15.5915 28.4435 17.1375 28.9377 18.7294 28.9948C20.3391 29.052 21.9258 28.6298 23.3649 27.9443C24.0245 27.6313 24.8395 27.1495 25.4024 26.5286C25.7081 27.0328 26.1742 27.6065 26.709 27.1321C27.4069 26.5137 26.6835 25.4706 26.2658 24.9242Z" fill="black"/>
<defs>
<linearGradient id="paint0_linear_129_971" x1="3.01587" y1="3.16237e-06" x2="39.1767" y2="3.45869" gradientUnits="userSpaceOnUse">
<stop stop-color="#34D992"/>
<stop offset="1" stop-color="#1661D9"/>
</linearGradient>
</defs>
</svg>
