<svg width="38" height="38" viewBox="0 0 38 38" fill="none" xmlns="http://www.w3.org/2000/svg">
<rect width="38" height="38" rx="19" fill="url(#paint0_linear_305_398)"/>
<path d="M15.1805 14.8694C15.1046 13.8675 14.8198 12.4416 13.7378 12.083C12.9278 11.8152 12.3013 12.2286 11.9027 12.8487C10.7278 14.0721 10.6751 16.559 11.89 17.698C12.4173 18.1915 13.3644 18.5143 13.9635 17.8857C14.8009 17.0061 15.2776 16.116 15.1826 14.8694H15.1805Z" fill="black"/>
<path d="M26.7565 16.1244C26.6805 15.1225 26.3958 13.6966 25.3137 13.338C24.5037 13.0702 23.8773 13.4836 23.4786 14.1037C22.3037 15.3271 22.251 17.814 23.466 18.953C23.9933 19.4466 24.9404 19.7693 25.5394 19.1407C26.3768 18.2611 26.8535 17.371 26.7586 16.1244H26.7565Z" fill="black"/>
<path d="M21.133 26.1373C21.1161 25.127 20.6669 24.0449 19.6607 23.6547C19.0933 23.4332 18.4141 23.5007 17.9332 23.8951C17.8742 23.9436 17.8214 23.9922 17.7729 24.0449C17.6232 24.1482 17.4903 24.2748 17.3785 24.4246C16.4019 25.7429 16.6191 28.0504 18.1589 28.8604C18.9077 29.2527 19.7219 29.219 20.2724 28.4976C20.785 27.8269 21.1457 26.9937 21.133 26.1394V26.1373Z" fill="black"/>
<defs>
<linearGradient id="paint0_linear_305_398" x1="3.01587" y1="3.16237e-06" x2="39.1767" y2="3.45869" gradientUnits="userSpaceOnUse">
<stop stop-color="#34D992"/>
<stop offset="1" stop-color="#1661D9"/>
</linearGradient>
</defs>
</svg>
