<svg width="960" height="110" viewBox="0 0 960 110" fill="none" xmlns="http://www.w3.org/2000/svg">
<path d="M925.909 96.0164C921.366 96.0164 917.301 94.8495 913.712 92.5157C910.124 90.1819 907.288 86.7941 905.205 82.3524C903.123 77.9106 902.081 72.5152 902.081 66.1663C902.081 59.742 903.135 54.3216 905.243 49.9049C907.376 45.4632 910.249 42.113 913.863 39.8545C917.477 37.5709 921.504 36.4291 925.946 36.4291C929.334 36.4291 932.119 37.0062 934.303 38.1606C936.486 39.2899 938.217 40.6575 939.497 42.2636C940.777 43.8445 941.768 45.3377 942.471 46.743H943.036V17.9092H956.7V95.0001H943.299V85.8907H942.471C941.768 87.296 940.752 88.7892 939.422 90.3701C938.092 91.926 936.335 93.256 934.152 94.3602C931.969 95.4643 929.221 96.0164 925.909 96.0164ZM929.71 84.8367C932.596 84.8367 935.056 84.0588 937.088 82.5029C939.121 80.922 940.664 78.7262 941.718 75.9156C942.772 73.105 943.299 69.8301 943.299 66.091C943.299 62.3519 942.772 59.1021 941.718 56.3417C940.689 53.5813 939.159 51.4357 937.126 49.9049C935.118 48.3741 932.646 47.6088 929.71 47.6088C926.674 47.6088 924.139 48.3992 922.107 49.9802C920.074 51.5612 918.543 53.7444 917.514 56.5299C916.485 59.3154 915.971 62.5025 915.971 66.091C915.971 69.7046 916.485 72.9293 917.514 75.765C918.568 78.5756 920.112 80.7965 922.144 82.4277C924.202 84.0337 926.724 84.8367 929.71 84.8367Z" fill="white"/>
<path d="M871.456 96.13C865.659 96.13 860.652 94.9254 856.436 92.5163C852.246 90.0821 849.021 86.6442 846.762 82.2024C844.504 77.7356 843.375 72.4782 843.375 66.4304C843.375 60.483 844.504 55.2633 846.762 50.7713C849.046 46.2543 852.233 42.741 856.323 40.2315C860.414 37.697 865.219 36.4297 870.74 36.4297C874.304 36.4297 877.666 37.0069 880.828 38.1612C884.015 39.2905 886.826 41.0471 889.26 43.4311C891.719 45.8151 893.652 48.8516 895.057 52.5405C896.462 56.2043 897.165 60.5708 897.165 65.6399V69.8182H849.774V60.6335H884.103C884.078 58.0237 883.513 55.7024 882.409 53.6697C881.305 51.612 879.762 49.9934 877.779 48.8139C875.822 47.6345 873.538 47.0447 870.929 47.0447C868.143 47.0447 865.696 47.7223 863.588 49.0774C861.48 50.4074 859.837 52.1641 858.657 54.3473C857.503 56.5054 856.913 58.8769 856.888 61.4616V69.4794C856.888 72.8421 857.503 75.728 858.732 78.1371C859.962 80.5211 861.681 82.353 863.889 83.6328C866.098 84.8875 868.683 85.5149 871.644 85.5149C873.626 85.5149 875.42 85.2389 877.026 84.6868C878.633 84.1096 880.025 83.2689 881.205 82.1648C882.384 81.0606 883.275 79.6929 883.877 78.0618L896.6 79.4922C895.797 82.8549 894.267 85.791 892.008 88.3004C889.775 90.7848 886.914 92.7171 883.426 94.0973C879.937 95.4524 875.947 96.13 871.456 96.13Z" fill="white"/>
<path d="M839.324 37.1824V47.7221H806.086V37.1824H839.324ZM814.292 23.3301H827.918V77.6099C827.918 79.4418 828.194 80.8471 828.746 81.8258C829.324 82.7794 830.076 83.4319 831.005 83.7832C831.933 84.1345 832.962 84.3102 834.092 84.3102C834.945 84.3102 835.723 84.2475 836.425 84.122C837.153 83.9965 837.705 83.8836 838.082 83.7832L840.378 94.4359C839.65 94.6869 838.609 94.9629 837.254 95.264C835.924 95.5652 834.292 95.7408 832.36 95.791C828.947 95.8914 825.873 95.377 823.138 94.2477C820.402 93.0933 818.232 91.3116 816.626 88.9025C815.045 86.4934 814.267 83.4821 814.292 79.8684V23.3301Z" fill="white"/>
<path d="M778.735 96.13C772.963 96.13 768.007 94.8627 763.866 92.3281C759.751 89.7936 756.576 86.2929 754.343 81.826C752.134 77.334 751.03 72.1645 751.03 66.3175C751.03 60.4453 752.16 55.2633 754.418 50.7713C756.677 46.2543 759.864 42.741 763.979 40.2315C768.12 37.697 773.013 36.4297 778.66 36.4297C783.352 36.4297 787.505 37.2955 791.119 39.027C794.758 40.7334 797.656 43.1551 799.814 46.2919C801.973 49.4036 803.202 53.0424 803.503 57.2081H790.479C789.952 54.4226 788.697 52.1013 786.715 50.2443C784.758 48.3622 782.135 47.4212 778.848 47.4212C776.062 47.4212 773.616 48.174 771.508 49.6797C769.4 51.1603 767.756 53.2933 766.576 56.0788C765.422 58.8643 764.845 62.2019 764.845 66.0916C764.845 70.0315 765.422 73.4193 766.576 76.255C767.731 79.0656 769.349 81.2363 771.432 82.767C773.54 84.2727 776.012 85.0256 778.848 85.0256C780.855 85.0256 782.65 84.6492 784.231 83.8963C785.837 83.1184 787.179 82.0017 788.258 80.5462C789.337 79.0907 790.078 77.3215 790.479 75.2386H803.503C803.177 79.3291 801.973 82.9553 799.89 86.1172C797.807 89.254 794.971 91.7133 791.383 93.495C787.794 95.2517 783.578 96.13 778.735 96.13Z" fill="white"/>
<path d="M720.517 96.13C714.72 96.13 709.714 94.9254 705.498 92.5163C701.307 90.0821 698.082 86.6442 695.824 82.2024C693.565 77.7356 692.436 72.4782 692.436 66.4304C692.436 60.483 693.565 55.2633 695.824 50.7713C698.107 46.2543 701.294 42.741 705.385 40.2315C709.475 37.697 714.281 36.4297 719.802 36.4297C723.365 36.4297 726.728 37.0069 729.89 38.1612C733.077 39.2905 735.888 41.0471 738.322 43.4311C740.781 45.8151 742.713 48.8516 744.119 52.5405C745.524 56.2043 746.227 60.5708 746.227 65.6399V69.8182H698.835V60.6335H733.165C733.14 58.0237 732.575 55.7024 731.471 53.6697C730.367 51.612 728.823 49.9934 726.841 48.8139C724.883 47.6345 722.6 47.0447 719.99 47.0447C717.205 47.0447 714.758 47.7223 712.65 49.0774C710.542 50.4074 708.898 52.1641 707.719 54.3473C706.564 56.5054 705.975 58.8769 705.95 61.4616V69.4794C705.95 72.8421 706.564 75.728 707.794 78.1371C709.024 80.5211 710.743 82.353 712.951 83.6328C715.159 84.8875 717.744 85.5149 720.705 85.5149C722.688 85.5149 724.482 85.2389 726.088 84.6868C727.694 84.1096 729.087 83.2689 730.266 82.1648C731.446 81.0606 732.337 79.6929 732.939 78.0618L745.662 79.4922C744.859 82.8549 743.328 85.791 741.07 88.3004C738.836 90.7848 735.975 92.7171 732.487 94.0973C728.999 95.4524 725.009 96.13 720.517 96.13Z" fill="white"/>
<path d="M648.193 61.1229V95.0007H634.567V37.1825H647.591V47.0071H648.269C649.599 43.7699 651.719 41.1977 654.63 39.2905C657.566 37.3833 661.192 36.4297 665.509 36.4297C669.499 36.4297 672.974 37.2829 675.936 38.9893C678.922 40.6958 681.23 43.1676 682.862 46.4048C684.518 49.642 685.334 53.5694 685.308 58.1868V95.0007H671.682V60.2947C671.682 56.4302 670.678 53.4062 668.671 51.223C666.688 49.0398 663.94 47.9482 660.427 47.9482C658.043 47.9482 655.922 48.4751 654.065 49.5291C652.234 50.558 650.791 52.0511 649.737 54.0085C648.708 55.9659 648.193 58.3374 648.193 61.1229Z" fill="white"/>
<path d="M587.839 61.1229V95.0007H574.213V37.1825H587.237V47.0071H587.915C589.245 43.7699 591.365 41.1977 594.276 39.2905C597.212 37.3833 600.838 36.4297 605.155 36.4297C609.145 36.4297 612.62 37.2829 615.582 38.9893C618.568 40.6958 620.876 43.1676 622.508 46.4048C624.164 49.642 624.98 53.5694 624.954 58.1868V95.0007H611.328V60.2947C611.328 56.4302 610.324 53.4062 608.317 51.223C606.334 49.0398 603.586 47.9482 600.073 47.9482C597.689 47.9482 595.568 48.4751 593.711 49.5291C591.88 50.558 590.437 52.0511 589.383 54.0085C588.354 55.9659 587.839 58.3374 587.839 61.1229Z" fill="white"/>
<path d="M539.183 96.13C533.537 96.13 528.643 94.8878 524.503 92.4034C520.362 89.919 517.15 86.4434 514.866 81.9766C512.608 77.5097 511.479 72.29 511.479 66.3175C511.479 60.3449 512.608 55.1127 514.866 50.6207C517.15 46.1288 520.362 42.6406 524.503 40.1562C528.643 37.6719 533.537 36.4297 539.183 36.4297C544.829 36.4297 549.723 37.6719 553.863 40.1562C558.004 42.6406 561.204 46.1288 563.462 50.6207C565.746 55.1127 566.888 60.3449 566.888 66.3175C566.888 72.29 565.746 77.5097 563.462 81.9766C561.204 86.4434 558.004 89.919 553.863 92.4034C549.723 94.8878 544.829 96.13 539.183 96.13ZM539.258 85.2138C542.32 85.2138 544.88 84.3731 546.937 82.6918C548.995 80.9853 550.526 78.7017 551.53 75.8409C552.559 72.9801 553.073 69.7931 553.073 66.2798C553.073 62.7415 552.559 59.5419 551.53 56.6811C550.526 53.7952 548.995 51.4991 546.937 49.7926C544.88 48.0862 542.32 47.233 539.258 47.233C536.121 47.233 533.512 48.0862 531.429 49.7926C529.371 51.4991 527.828 53.7952 526.799 56.6811C525.795 59.5419 525.293 62.7415 525.293 66.2798C525.293 69.7931 525.795 72.9801 526.799 75.8409C527.828 78.7017 529.371 80.9853 531.429 82.6918C533.512 84.3731 536.121 85.2138 539.258 85.2138Z" fill="white"/>
<path d="M506.016 43.9201H491.938C491.537 41.6114 490.796 39.5662 489.717 37.7844C488.638 35.9776 487.296 34.4469 485.689 33.1921C484.083 31.9374 482.251 30.9963 480.194 30.369C478.161 29.7165 475.965 29.3903 473.606 29.3903C469.416 29.3903 465.702 30.4442 462.464 32.5522C459.227 34.6351 456.693 37.6966 454.861 41.7369C453.029 45.752 452.113 50.658 452.113 56.4549C452.113 62.3522 453.029 67.3209 454.861 71.3612C456.718 75.3763 459.252 78.4128 462.464 80.4705C465.702 82.5032 469.403 83.5195 473.569 83.5195C475.877 83.5195 478.036 83.2184 480.043 82.6161C482.076 81.9888 483.895 81.0728 485.501 79.8683C487.132 78.6637 488.5 77.1831 489.604 75.4265C490.733 73.6699 491.511 71.6623 491.938 69.4038L506.016 69.479C505.489 73.1429 504.347 76.5808 502.591 79.793C500.859 83.0051 498.588 85.8408 495.778 88.3001C492.967 90.7343 489.68 92.6415 485.915 94.0217C482.151 95.3768 477.973 96.0543 473.381 96.0543C466.605 96.0543 460.557 94.4859 455.237 91.3491C449.917 88.2122 445.726 83.6826 442.665 77.7603C439.603 71.838 438.072 64.7362 438.072 56.4549C438.072 48.1486 439.616 41.0468 442.702 35.1495C445.789 29.2272 449.992 24.6976 455.312 21.5607C460.632 18.4239 466.655 16.8555 473.381 16.8555C477.672 16.8555 481.662 17.4577 485.351 18.6623C489.04 19.8668 492.327 21.636 495.213 23.9698C498.099 26.2785 500.47 29.1142 502.327 32.4769C504.209 35.8145 505.439 39.6289 506.016 43.9201Z" fill="white"/>
<path d="M410.218 37.1824V47.7221H376.98V37.1824H410.218ZM385.186 23.3301H398.813V77.6099C398.813 79.4418 399.089 80.8471 399.641 81.8258C400.218 82.7794 400.971 83.4319 401.9 83.7832C402.828 84.1345 403.857 84.3102 404.986 84.3102C405.839 84.3102 406.617 84.2475 407.32 84.122C408.048 83.9965 408.6 83.8836 408.976 83.7832L411.272 94.4359C410.545 94.6869 409.503 94.9629 408.148 95.264C406.818 95.5652 405.187 95.7408 403.255 95.791C399.842 95.8914 396.768 95.377 394.032 94.2477C391.297 93.0933 389.126 91.3116 387.52 88.9025C385.939 86.4934 385.161 83.4821 385.186 79.8684V23.3301Z" fill="white"/>
<path d="M348.35 96.13C342.553 96.13 337.546 94.9254 333.33 92.5163C329.14 90.0821 325.915 86.6442 323.656 82.2024C321.398 77.7356 320.269 72.4782 320.269 66.4304C320.269 60.483 321.398 55.2633 323.656 50.7713C325.94 46.2543 329.127 42.741 333.217 40.2315C337.308 37.697 342.113 36.4297 347.634 36.4297C351.198 36.4297 354.56 37.0069 357.722 38.1612C360.909 39.2905 363.72 41.0471 366.154 43.4311C368.613 45.8151 370.546 48.8516 371.951 52.5405C373.356 56.2043 374.059 60.5708 374.059 65.6399V69.8182H326.668V60.6335H360.997C360.972 58.0237 360.408 55.7024 359.303 53.6697C358.199 51.612 356.656 49.9934 354.673 48.8139C352.716 47.6345 350.432 47.0447 347.823 47.0447C345.037 47.0447 342.59 47.7223 340.482 49.0774C338.374 50.4074 336.731 52.1641 335.551 54.3473C334.397 56.5054 333.807 58.8769 333.782 61.4616V69.4794C333.782 72.8421 334.397 75.728 335.626 78.1371C336.856 80.5211 338.575 82.353 340.783 83.6328C342.992 84.8875 345.577 85.5149 348.538 85.5149C350.52 85.5149 352.314 85.2389 353.921 84.6868C355.527 84.1096 356.919 83.2689 358.099 82.1648C359.278 81.0606 360.169 79.6929 360.771 78.0618L373.494 79.4922C372.691 82.8549 371.161 85.791 368.902 88.3004C366.669 90.7848 363.808 92.7171 360.32 94.0973C356.832 95.4524 352.841 96.13 348.35 96.13Z" fill="white"/>
<path d="M299.222 42.5273C298.595 40.4947 297.729 38.6753 296.625 37.0693C295.546 35.4381 294.241 34.0453 292.71 32.891C291.205 31.7366 289.473 30.8709 287.516 30.2937C285.558 29.6914 283.425 29.3903 281.117 29.3903C276.976 29.3903 273.287 30.4317 270.05 32.5146C266.813 34.5974 264.265 37.659 262.408 41.6992C260.577 45.7144 259.661 50.6078 259.661 56.3796C259.661 62.2016 260.577 67.1327 262.408 71.1729C264.24 75.2132 266.787 78.2873 270.05 80.3952C273.312 82.4781 277.101 83.5195 281.418 83.5195C285.332 83.5195 288.72 82.7667 291.581 81.261C294.467 79.7553 296.688 77.6223 298.244 74.8619C299.8 72.0764 300.578 68.814 300.578 65.0749L303.739 65.5643H282.81V54.6481H314.091V63.908C314.091 70.5079 312.686 76.217 309.875 81.0352C307.064 85.8533 303.2 89.5674 298.281 92.1772C293.363 94.762 287.716 96.0543 281.342 96.0543C274.241 96.0543 268.005 94.4608 262.634 91.2738C257.289 88.0617 253.111 83.507 250.1 77.6097C247.113 71.6874 245.62 64.6609 245.62 56.5302C245.62 50.3067 246.498 44.7482 248.255 39.8548C250.037 34.9613 252.521 30.8081 255.708 27.3952C258.895 23.9573 262.634 21.3474 266.926 19.5657C271.217 17.7589 275.884 16.8555 280.928 16.8555C285.194 16.8555 289.172 17.4828 292.861 18.7376C296.55 19.9672 299.825 21.7238 302.685 24.0075C305.571 26.2911 307.943 29.0013 309.8 32.1381C311.657 35.275 312.874 38.738 313.451 42.5273H299.222Z" fill="white"/>
<path d="M216.684 52.4652L204.262 53.8203C203.911 52.5656 203.296 51.3861 202.418 50.282C201.564 49.1778 200.41 48.2869 198.954 47.6094C197.499 46.9318 195.717 46.593 193.609 46.593C190.774 46.593 188.39 47.2079 186.457 48.4375C184.55 49.6671 183.609 51.2607 183.634 53.218C183.609 54.8994 184.224 56.267 185.479 57.321C186.758 58.375 188.866 59.2408 191.802 59.9183L201.665 62.0263C207.135 63.2057 211.201 65.0753 213.861 67.6349C216.546 70.1946 217.901 73.5447 217.926 77.6854C217.901 81.3241 216.834 84.5362 214.726 87.3217C212.644 90.0821 209.745 92.2403 206.031 93.7962C202.317 95.352 198.051 96.13 193.233 96.13C186.156 96.13 180.46 94.6494 176.143 91.6882C171.827 88.7019 169.255 84.5488 168.427 79.2287L181.714 77.9489C182.317 80.5587 183.597 82.5286 185.554 83.8587C187.511 85.1887 190.058 85.8537 193.195 85.8537C196.432 85.8537 199.03 85.1887 200.987 83.8587C202.97 82.5286 203.961 80.8849 203.961 78.9276C203.961 77.2713 203.321 75.9036 202.041 74.8246C200.786 73.7455 198.829 72.9174 196.169 72.3402L186.307 70.2699C180.761 69.1155 176.658 67.1707 173.998 64.4354C171.338 61.675 170.02 58.1868 170.045 53.9709C170.02 50.4074 170.986 47.3208 172.944 44.7109C174.926 42.076 177.674 40.0433 181.187 38.6129C184.726 37.1574 188.804 36.4297 193.421 36.4297C200.197 36.4297 205.529 37.8726 209.419 40.7585C213.334 43.6444 215.755 47.5466 216.684 52.4652Z" fill="white"/>
<path d="M171.669 17.9092V25.5882C171.669 27.7965 171.243 30.0927 170.389 32.4767C169.561 34.8356 168.419 37.0941 166.964 39.2522C165.509 41.3853 163.852 43.2172 161.995 44.748L155.671 40.645C157.052 38.5621 158.256 36.3161 159.285 33.9071C160.314 31.4729 160.828 28.725 160.828 25.6634V17.9092H171.669Z" fill="white"/>
<path d="M150.266 37.1824V47.7221H117.028V37.1824H150.266ZM125.234 23.3301H138.86V77.6099C138.86 79.4418 139.136 80.8471 139.688 81.8258C140.266 82.7794 141.018 83.4319 141.947 83.7832C142.875 84.1345 143.904 84.3102 145.034 84.3102C145.887 84.3102 146.665 84.2475 147.367 84.122C148.095 83.9965 148.647 83.8836 149.024 83.7832L151.32 94.4359C150.592 94.6869 149.551 94.9629 148.195 95.264C146.865 95.5652 145.234 95.7408 143.302 95.791C139.889 95.8914 136.815 95.377 134.08 94.2477C131.344 93.0933 129.174 91.3116 127.568 88.9025C125.987 86.4934 125.209 83.4821 125.234 79.8684V23.3301Z" fill="white"/>
<path d="M88.3969 96.13C82.6 96.13 77.5936 94.9254 73.3777 92.5163C69.1869 90.0821 65.9622 86.6442 63.7037 82.2024C61.4452 77.7356 60.3159 72.4782 60.3159 66.4304C60.3159 60.483 61.4452 55.2633 63.7037 50.7713C65.9873 46.2543 69.1744 42.741 73.2648 40.2315C77.3552 37.697 82.1609 36.4297 87.6817 36.4297C91.2451 36.4297 94.6078 37.0069 97.7698 38.1612C100.957 39.2905 103.767 41.0471 106.202 43.4311C108.661 45.8151 110.593 48.8516 111.998 52.5405C113.404 56.2043 114.106 60.5708 114.106 65.6399V69.8182H66.7151V60.6335H101.045C101.02 58.0237 100.455 55.7024 99.3507 53.6697C98.2466 51.612 96.7032 49.9934 94.7207 48.8139C92.7634 47.6345 90.4797 47.0447 87.8699 47.0447C85.0844 47.0447 82.6377 47.7223 80.5297 49.0774C78.4217 50.4074 76.778 52.1641 75.5986 54.3473C74.4442 56.5054 73.8545 58.8769 73.8294 61.4616V69.4794C73.8294 72.8421 74.4442 75.728 75.6739 78.1371C76.9035 80.5211 78.6225 82.353 80.8308 83.6328C83.0392 84.8875 85.6239 85.5149 88.5851 85.5149C90.5676 85.5149 92.3619 85.2389 93.9679 84.6868C95.574 84.1096 96.9667 83.2689 98.1462 82.1648C99.3256 81.0606 100.216 79.6929 100.819 78.0618L113.542 79.4922C112.739 82.8549 111.208 85.791 108.949 88.3004C106.716 90.7848 103.855 92.7171 100.367 94.0973C96.8789 95.4524 92.8888 96.13 88.3969 96.13Z" fill="white"/>
<path d="M7.60352 95.0001V17.9092H21.5687V83.2934H55.5218V95.0001H7.60352Z" fill="white"/>
</svg>
